<svg width="37" height="32" viewBox="0 0 37 32" fill="none" xmlns="http://www.w3.org/2000/svg">
<path d="M36.7671 9.5338C36.7465 8.20839 36.457 6.89616 35.9116 5.6558C35.4386 4.60956 34.7163 3.65939 33.7907 2.866C32.865 2.07261 31.7565 1.45344 30.5359 1.04805C29.1074 0.588422 27.5983 0.339894 26.0728 0.313047C24.1087 0.237797 23.486 0.216797 18.5003 0.216797C13.5145 0.216797 12.8755 0.216797 10.9257 0.313047C9.40088 0.340092 7.89248 0.588616 6.46464 1.04805C5.24384 1.45315 4.13514 2.07223 3.20947 2.86565C2.28381 3.65908 1.56156 4.6094 1.08893 5.6558C0.551629 6.87928 0.262309 8.17249 0.233474 9.47955C0.145682 11.1648 0.119141 11.6985 0.119141 15.972C0.119141 20.2456 0.119141 20.7915 0.233474 22.4646C0.264099 23.7736 0.551974 25.0651 1.08893 26.2918C1.56235 27.3379 2.28514 28.2878 3.21111 29.0809C4.13709 29.874 5.2459 30.4928 6.46668 30.8978C7.89061 31.3759 9.39928 31.6422 10.9277 31.6853C12.8939 31.7605 13.5166 31.7833 18.5023 31.7833C23.4881 31.7833 24.1271 31.7833 26.0769 31.6853C27.6023 31.6596 29.1115 31.4116 30.54 30.9521C31.7603 30.5462 32.8685 29.9269 33.7941 29.1335C34.7196 28.3402 35.4422 27.3903 35.9157 26.3443C36.4526 25.1193 36.7405 23.8278 36.7711 22.517C36.8589 20.8335 36.8855 20.2998 36.8855 16.0245C36.8814 11.751 36.8814 11.2085 36.7671 9.5338ZM18.488 24.0535C13.2736 24.0535 9.04939 20.4328 9.04939 15.9633C9.04939 11.4938 13.2736 7.87305 18.488 7.87305C20.9913 7.87305 23.392 8.72541 25.1621 10.2426C26.9322 11.7598 27.9266 13.8176 27.9266 15.9633C27.9266 18.109 26.9322 20.1668 25.1621 21.684C23.392 23.2012 20.9913 24.0535 18.488 24.0535ZM28.3023 9.4603C28.0132 9.46053 27.7269 9.41189 27.4597 9.31717C27.1926 9.22244 26.9499 9.08349 26.7454 8.90827C26.541 8.73304 26.3789 8.52499 26.2684 8.296C26.1579 8.06702 26.1011 7.8216 26.1014 7.5738C26.1014 7.32617 26.1583 7.08098 26.2688 6.8522C26.3794 6.62343 26.5414 6.41556 26.7457 6.24046C26.95 6.06536 27.1925 5.92647 27.4594 5.83171C27.7263 5.73695 28.0124 5.68817 28.3013 5.68817C28.5902 5.68817 28.8762 5.73695 29.1432 5.83171C29.4101 5.92647 29.6526 6.06536 29.8569 6.24046C30.0611 6.41556 30.2232 6.62343 30.3337 6.8522C30.4443 7.08098 30.5012 7.32617 30.5012 7.5738C30.5012 8.6168 29.5171 9.4603 28.3023 9.4603Z" fill="white"/>
</svg>
