<svg width="33" height="30" viewBox="0 0 33 30" fill="none" xmlns="http://www.w3.org/2000/svg">
<path d="M30.8333 0H2.16667C1.69149 0 1.23577 0.175595 0.899767 0.488155C0.563764 0.800716 0.375 1.22464 0.375 1.66667V28.3333C0.375 28.7754 0.563764 29.1993 0.899767 29.5118C1.23577 29.8244 1.69149 30 2.16667 30H17.6019V18.4H13.413V13.8583H17.6019V10.525C17.6019 6.65 20.146 4.53833 23.8727 4.53833C25.1251 4.535 26.3792 4.595 27.6262 4.71667V8.75H25.0552C23.0342 8.75 22.64 9.64667 22.64 10.9583V13.85H27.4722L26.8451 18.3917H22.6382V30H30.8333C31.3085 30 31.7642 29.8244 32.1002 29.5118C32.4362 29.1993 32.625 28.7754 32.625 28.3333V1.66667C32.625 1.22464 32.4362 0.800716 32.1002 0.488155C31.7642 0.175595 31.3085 0 30.8333 0Z" fill="white"/>
</svg>
