<svg width="43" height="36" viewBox="0 0 43 36" fill="none" xmlns="http://www.w3.org/2000/svg">
<path d="M37.7201 9.32676C37.7477 9.70593 37.7477 10.0829 37.7477 10.4599C37.7477 21.9974 29.1351 35.2921 13.3952 35.2921C8.546 35.2921 4.041 33.8599 0.25 31.3726C0.9385 31.4528 1.6015 31.4809 2.31762 31.4809C6.17023 31.4904 9.91375 30.1769 12.9447 27.7521C11.1585 27.7191 9.42697 27.1183 7.99188 26.0334C6.55679 24.9485 5.48979 23.4337 4.93987 21.7006C5.469 21.7808 6.00025 21.8349 6.557 21.8349C7.32412 21.8349 8.0955 21.7266 8.81162 21.5381C6.87311 21.139 5.13001 20.0677 3.87869 18.5062C2.62737 16.9448 1.9451 14.9897 1.94787 12.9733V12.8649C3.089 13.5128 4.41287 13.9179 5.81537 13.9721C4.64044 13.176 3.67703 12.0958 3.0111 10.8278C2.34516 9.55981 1.99742 8.14345 1.99887 6.7051C1.99887 5.08443 2.42175 3.5981 3.16337 2.30243C5.31417 4.99997 7.99669 7.20681 11.0372 8.78002C14.0777 10.3532 17.4084 11.2577 20.8136 11.4349C20.6819 10.7849 20.6011 10.1111 20.6011 9.4351C20.6006 8.28885 20.8216 7.15372 21.2515 6.09462C21.6815 5.03551 22.312 4.07319 23.1069 3.26267C23.9018 2.45215 24.8456 1.80932 25.8844 1.37093C26.9231 0.932546 28.0364 0.707195 29.1606 0.707765C31.6256 0.707765 33.8505 1.76076 35.4145 3.46376C37.3308 3.08593 39.1684 2.37268 40.846 1.3556C40.2072 3.37237 38.8692 5.08249 37.0826 6.1656C38.7822 5.96795 40.4432 5.51224 42.0105 4.8136C40.8399 6.55364 39.3894 8.07951 37.7201 9.32676Z" fill="white"/>
</svg>
